<svg xmlns="http://www.w3.org/2000/svg" xmlns:xlink="http://www.w3.org/1999/xlink" width="500" zoomAndPan="magnify" viewBox="0 0 375 374.999991" height="500" preserveAspectRatio="xMidYMid meet" version="1.0"><defs><clipPath id="2e3675188f"><path d="M 142 34 L 246 34 L 246 137 L 142 137 Z M 142 34 " clip-rule="nonzero"/></clipPath><clipPath id="a6342488a0"><path d="M 121.320312 89.496094 L 245.496094 34.566406 L 266.355469 81.730469 L 142.183594 136.660156 Z M 121.320312 89.496094 " clip-rule="nonzero"/></clipPath><clipPath id="3a66d905cf"><path d="M 147.546875 77.894531 L 245.472656 34.578125 L 240.105469 93.34375 L 142.183594 136.660156 Z M 147.546875 77.894531 " clip-rule="nonzero"/></clipPath><clipPath id="92237249e6"><path d="M 0.078125 0.558594 L 103.519531 0.558594 L 103.519531 102.800781 L 0.078125 102.800781 Z M 0.078125 0.558594 " clip-rule="nonzero"/></clipPath><clipPath id="407362abf4"><path d="M -20.679688 55.496094 L 103.496094 0.566406 L 124.355469 47.730469 L 0.183594 102.660156 Z M -20.679688 55.496094 " clip-rule="nonzero"/></clipPath><clipPath id="d2bc5f8dd9"><path d="M 5.546875 43.894531 L 103.472656 0.578125 L 98.105469 59.34375 L 0.183594 102.660156 Z M 5.546875 43.894531 " clip-rule="nonzero"/></clipPath><clipPath id="bd56277ba1"><rect x="0" width="104" y="0" height="103"/></clipPath><clipPath id="5efa44cc7e"><path d="M 211 98 L 352 98 L 352 188 L 211 188 Z M 211 98 " clip-rule="nonzero"/></clipPath><clipPath id="2b5537d8d5"><path d="M 242.902344 81.398438 L 351.359375 163.089844 L 320.332031 204.28125 L 211.875 122.59375 Z M 242.902344 81.398438 " clip-rule="nonzero"/></clipPath><clipPath id="fd6bddc487"><path d="M 265.808594 98.652344 L 351.339844 163.074219 L 297.40625 187.015625 L 211.875 122.59375 Z M 265.808594 98.652344 " clip-rule="nonzero"/></clipPath><clipPath id="e99b42444a"><path d="M 0.679688 0.640625 L 140.359375 0.640625 L 140.359375 89.199219 L 0.679688 89.199219 Z M 0.679688 0.640625 " clip-rule="nonzero"/></clipPath><clipPath id="2db131eece"><path d="M 31.902344 -16.601562 L 140.359375 65.089844 L 109.332031 106.28125 L 0.875 24.59375 Z M 31.902344 -16.601562 " clip-rule="nonzero"/></clipPath><clipPath id="e5e6d4fc0d"><path d="M 54.808594 0.652344 L 140.339844 65.074219 L 86.40625 89.015625 L 0.875 24.59375 Z M 54.808594 0.652344 " clip-rule="nonzero"/></clipPath><clipPath id="5b48cc319e"><rect x="0" width="141" y="0" height="90"/></clipPath><clipPath id="36cee5a0ab"><path d="M 247 182 L 307 182 L 307 323 L 247 323 Z M 247 182 " clip-rule="nonzero"/></clipPath><clipPath id="fc7dfd7e53"><path d="M 309.8125 187.496094 L 295.574219 322.523438 L 244.289062 317.117188 L 258.523438 182.085938 Z M 309.8125 187.496094 " clip-rule="nonzero"/></clipPath><clipPath id="945e262ee9"><path d="M 306.804688 216.011719 L 295.578125 322.5 L 247.296875 288.574219 L 258.523438 182.085938 Z M 306.804688 216.011719 " clip-rule="nonzero"/></clipPath><clipPath id="543581f709"><path d="M 0.199219 0 L 59.960938 0 L 59.960938 140.558594 L 0.199219 140.558594 Z M 0.199219 0 " clip-rule="nonzero"/></clipPath><clipPath id="c457707b6a"><path d="M 62.8125 5.496094 L 48.574219 140.523438 L -2.710938 135.117188 L 11.523438 0.0859375 Z M 62.8125 5.496094 " clip-rule="nonzero"/></clipPath><clipPath id="35fcdb9870"><path d="M 59.804688 34.011719 L 48.578125 140.5 L 0.296875 106.574219 L 11.523438 0.0859375 Z M 59.804688 34.011719 " clip-rule="nonzero"/></clipPath><clipPath id="68909990c3"><rect x="0" width="60" y="0" height="141"/></clipPath><clipPath id="d283e2f31f"><path d="M 129 249 L 233 249 L 233 352 L 129 352 Z M 129 249 " clip-rule="nonzero"/></clipPath><clipPath id="55f5bbdff4"><path d="M 253.394531 296.21875 L 129.25 351.207031 L 108.363281 304.050781 L 232.507812 249.0625 Z M 253.394531 296.21875 " clip-rule="nonzero"/></clipPath><clipPath id="91a93512ab"><path d="M 227.175781 307.832031 L 129.273438 351.195312 L 134.605469 292.425781 L 232.507812 249.0625 Z M 227.175781 307.832031 " clip-rule="nonzero"/></clipPath><clipPath id="6f252cedac"><path d="M 0.121094 0 L 103.558594 0 L 103.558594 102.359375 L 0.121094 102.359375 Z M 0.121094 0 " clip-rule="nonzero"/></clipPath><clipPath id="95884634ed"><path d="M 124.394531 47.21875 L 0.25 102.207031 L -20.636719 55.050781 L 103.507812 0.0625 Z M 124.394531 47.21875 " clip-rule="nonzero"/></clipPath><clipPath id="40f6ec05bc"><path d="M 98.175781 58.832031 L 0.273438 102.195312 L 5.605469 43.425781 L 103.507812 0.0625 Z M 98.175781 58.832031 " clip-rule="nonzero"/></clipPath><clipPath id="d16f23fc6a"><rect x="0" width="104" y="0" height="103"/></clipPath><clipPath id="ecf312fd5b"><path d="M 22 197 L 163 197 L 163 286 L 22 286 Z M 22 197 " clip-rule="nonzero"/></clipPath><clipPath id="7935c5c4f8"><path d="M 131.492188 302.992188 L 22.433594 222.105469 L 53.15625 180.683594 L 162.214844 261.570312 Z M 131.492188 302.992188 " clip-rule="nonzero"/></clipPath><clipPath id="66729192b2"><path d="M 108.457031 285.90625 L 22.457031 222.121094 L 76.210938 197.78125 L 162.214844 261.570312 Z M 108.457031 285.90625 " clip-rule="nonzero"/></clipPath><clipPath id="0b10515077"><path d="M 0.320312 0.761719 L 140.238281 0.761719 L 140.238281 89 L 0.320312 89 Z M 0.320312 0.761719 " clip-rule="nonzero"/></clipPath><clipPath id="a469531beb"><path d="M 109.492188 105.992188 L 0.433594 25.105469 L 31.15625 -16.316406 L 140.214844 64.570312 Z M 109.492188 105.992188 " clip-rule="nonzero"/></clipPath><clipPath id="f1d51b252f"><path d="M 86.457031 88.90625 L 0.457031 25.121094 L 54.210938 0.78125 L 140.214844 64.570312 Z M 86.457031 88.90625 " clip-rule="nonzero"/></clipPath><clipPath id="d921783a82"><rect x="0" width="141" y="0" height="89"/></clipPath><clipPath id="eaaf8e9fce"><path d="M 67 66 L 128 66 L 128 207 L 67 207 Z M 67 66 " clip-rule="nonzero"/></clipPath><clipPath id="807f5846a7"><path d="M 64.824219 201.386719 L 79.339844 66.382812 L 130.617188 71.894531 L 116.101562 206.898438 Z M 64.824219 201.386719 " clip-rule="nonzero"/></clipPath><clipPath id="856d90ba60"><path d="M 67.890625 172.871094 L 79.335938 66.410156 L 127.546875 100.433594 L 116.101562 206.898438 Z M 67.890625 172.871094 " clip-rule="nonzero"/></clipPath><clipPath id="a323f0cbfa"><path d="M 0.679688 0.238281 L 60.679688 0.238281 L 60.679688 141 L 0.679688 141 Z M 0.679688 0.238281 " clip-rule="nonzero"/></clipPath><clipPath id="18ed85d16d"><path d="M -2.175781 135.386719 L 12.339844 0.382812 L 63.617188 5.894531 L 49.101562 140.898438 Z M -2.175781 135.386719 " clip-rule="nonzero"/></clipPath><clipPath id="52bf8c9217"><path d="M 0.890625 106.871094 L 12.335938 0.410156 L 60.546875 34.433594 L 49.101562 140.898438 Z M 0.890625 106.871094 " clip-rule="nonzero"/></clipPath><clipPath id="3d9db020e1"><rect x="0" width="61" y="0" height="141"/></clipPath></defs><g clip-path="url(#2e3675188f)"><g clip-path="url(#a6342488a0)"><g clip-path="url(#3a66d905cf)"><g transform="matrix(1, 0, 0, 1, 142, 34)"><g clip-path="url(#bd56277ba1)"><g clip-path="url(#92237249e6)"><g clip-path="url(#407362abf4)"><g clip-path="url(#d2bc5f8dd9)"><path fill="#3b8fbf" d="M -20.679688 55.496094 L 103.496094 0.566406 L 124.355469 47.730469 L 0.183594 102.660156 Z M -20.679688 55.496094 " fill-opacity="1" fill-rule="nonzero"/></g></g></g></g></g></g></g></g><g clip-path="url(#5efa44cc7e)"><g clip-path="url(#2b5537d8d5)"><g clip-path="url(#fd6bddc487)"><g transform="matrix(1, 0, 0, 1, 211, 98)"><g clip-path="url(#5b48cc319e)"><g clip-path="url(#e99b42444a)"><g clip-path="url(#2db131eece)"><g clip-path="url(#e5e6d4fc0d)"><path fill="#7bb3cd" d="M 31.902344 -16.601562 L 140.359375 65.089844 L 109.332031 106.28125 L 0.875 24.59375 Z M 31.902344 -16.601562 " fill-opacity="1" fill-rule="nonzero"/></g></g></g></g></g></g></g></g><g clip-path="url(#36cee5a0ab)"><g clip-path="url(#fc7dfd7e53)"><g clip-path="url(#945e262ee9)"><g transform="matrix(1, 0, 0, 1, 247, 182)"><g clip-path="url(#68909990c3)"><g clip-path="url(#543581f709)"><g clip-path="url(#c457707b6a)"><g clip-path="url(#35fcdb9870)"><path fill="#2aafb0" d="M 62.8125 5.496094 L 48.574219 140.523438 L -2.710938 135.117188 L 11.523438 0.0859375 Z M 62.8125 5.496094 " fill-opacity="1" fill-rule="nonzero"/></g></g></g></g></g></g></g></g><g clip-path="url(#d283e2f31f)"><g clip-path="url(#55f5bbdff4)"><g clip-path="url(#91a93512ab)"><g transform="matrix(1, 0, 0, 1, 129, 249)"><g clip-path="url(#d16f23fc6a)"><g clip-path="url(#6f252cedac)"><g clip-path="url(#95884634ed)"><g clip-path="url(#40f6ec05bc)"><path fill="#85afc2" d="M 124.394531 47.21875 L 0.25 102.207031 L -20.636719 55.050781 L 103.507812 0.0625 Z M 124.394531 47.21875 " fill-opacity="1" fill-rule="nonzero"/></g></g></g></g></g></g></g></g><g clip-path="url(#ecf312fd5b)"><g clip-path="url(#7935c5c4f8)"><g clip-path="url(#66729192b2)"><g transform="matrix(1, 0, 0, 1, 22, 197)"><g clip-path="url(#d921783a82)"><g clip-path="url(#0b10515077)"><g clip-path="url(#a469531beb)"><g clip-path="url(#f1d51b252f)"><path fill="#7b5fa3" d="M 109.492188 105.992188 L 0.433594 25.105469 L 31.15625 -16.316406 L 140.214844 64.570312 Z M 109.492188 105.992188 " fill-opacity="1" fill-rule="nonzero"/></g></g></g></g></g></g></g></g><g clip-path="url(#eaaf8e9fce)"><g clip-path="url(#807f5846a7)"><g clip-path="url(#856d90ba60)"><g transform="matrix(1, 0, 0, 1, 67, 66)"><g clip-path="url(#3d9db020e1)"><g clip-path="url(#a323f0cbfa)"><g clip-path="url(#18ed85d16d)"><g clip-path="url(#52bf8c9217)"><path fill="#9093c3" d="M -2.175781 135.386719 L 12.339844 0.382812 L 63.617188 5.894531 L 49.101562 140.898438 Z M -2.175781 135.386719 " fill-opacity="1" fill-rule="nonzero"/></g></g></g></g></g></g></g></g></svg>